<svg width="525" height="529" viewBox="0 0 525 529" xmlns="http://www.w3.org/2000/svg">
<path d="M65.8711 77.9443C66.4193 120.848 67.5157 158.371 68.0639 161.268C69.0232 165.683 67.1045 167.062 57.3739 168.718C36.4052 172.443 15.8476 189.549 5.43175 211.897C-1.69488 227.072 -1.83193 467.526 5.15765 483.252C12.1472 498.841 28.0451 514.706 43.8059 521.879L58.1962 528.363H262.402H466.607L481.134 521.742C521.838 503.256 524.168 493.875 524.168 347.644C524.168 216.036 523.757 212.311 505.941 191.894C494.977 179.34 476.201 168.304 465.785 168.304C459.755 168.304 459.755 168.028 459.755 114.64C459.755 46.6288 457.562 35.7305 440.842 19.0381C421.929 -0.137509 423.436 0.000444263 231.976 0.000444263H64.6376L65.8711 77.9443ZM413.431 19.7278C440.156 28.6948 443.308 39.1793 443.308 119.468V182.237L276.244 181.548C63.2671 180.444 83.2765 190.377 82.043 85.3938L81.0837 16.5549H242.666C355.87 16.5549 406.853 17.5206 413.431 19.7278ZM120.965 242.661C138.919 260.733 128.366 292.876 103.012 297.015C83.5506 300.188 65.0488 284.461 65.0488 264.872C65.0488 235.763 100.271 221.83 120.965 242.661ZM230.606 242.661C248.56 260.733 238.007 292.876 212.652 297.015C193.191 300.188 174.689 284.461 174.689 264.872C174.689 235.763 209.911 221.83 230.606 242.661ZM340.246 242.661C358.2 260.733 347.647 292.876 322.293 297.015C302.832 300.188 284.33 284.461 284.33 264.872C284.33 235.763 319.552 221.83 340.246 242.661ZM449.887 242.661C467.84 260.733 457.288 292.876 431.933 297.015C412.472 300.188 393.97 284.461 393.97 264.872C393.97 235.763 429.192 221.83 449.887 242.661ZM175.786 341.988C193.739 360.06 183.186 392.203 157.832 396.342C138.371 399.514 119.869 383.788 119.869 364.198C119.869 335.09 155.091 321.157 175.786 341.988ZM285.426 341.988C303.38 360.06 292.827 392.203 267.472 396.342C248.011 399.514 229.509 383.788 229.509 364.198C229.509 335.09 264.732 321.157 285.426 341.988ZM395.067 341.988C413.02 360.06 402.467 392.203 377.113 396.342C357.652 399.514 339.15 383.788 339.15 364.198C339.15 335.09 374.372 321.157 395.067 341.988ZM451.806 438.417C457.151 443.936 459.755 449.316 459.755 455.248C459.755 461.18 457.151 466.56 451.806 472.078L443.72 480.079H261.442H79.302L72.1754 471.526C62.5819 460.076 62.856 448.764 72.9977 438.417L81.0837 430.416H262.402H443.72L451.806 438.417Z" />
<path d="M130.833 74.4962V82.7734H262.402H393.97V74.4962V66.219H262.402H130.833V74.4962Z" />
<path d="M130.833 124.16V132.438H262.402H393.97V124.16V115.883H262.402H130.833V124.16Z" />
</svg>
