<?xml version="1.0" encoding="UTF-8"?>
<svg id="Layer_2" data-name="Layer 2" xmlns="http://www.w3.org/2000/svg" viewBox="0 0 626.35 346.08">
  <defs>
    <style>
      .cls-1 {
        fill: #fff;
        stroke-width: 0px;
      }
    </style>
  </defs>
  <g id="Layer_1-2" data-name="Layer 1">
    <g>
      <path class="cls-1" d="M284.58,236.2c-11.55,1.18-22.77,2.35-33.99,3.45-3.97.39-7.95.72-11.93.84-3.9.13-7.21-1.42-7.57-5.58-.36-4.03,2.23-6.5,6.28-6.97,10.72-1.25,21.45-2.45,32.18-3.59,7.27-.78,14.59-1.16,21.79-2.31,2.02-.32,4.22-2.42,5.45-4.29,5.65-8.59,10.97-17.41,16.47-26.11.97-1.54,2.04-3.08,3.33-4.34,2.85-2.77,6.1-4.21,9.81-1.56,3.73,2.66,4.39,6.18,2.13,10.05-4.11,7.02-8.38,13.94-12.58,20.9-.58.97-1.12,1.96-1.97,3.46,10.06-1.09,19.55-2.09,29.04-3.16,13.85-1.55,27.7-3.14,41.55-4.72,5.11-.58,10.21-1.57,15.32-1.63,2.87-.03,6.47.67,8.49,2.45,3.64,3.23,1.36,8.77-4.12,9.98-5.17,1.14-10.52,1.49-15.8,2.08-19.98,2.21-39.96,4.39-59.95,6.53-6.78.72-13.6,1.11-20.35,2.02-2.07.28-4.84,1.27-5.81,2.85-11.37,18.53-23.05,36.93-30.61,57.47-1.18,3.19-1.83,6.77-1.81,10.16.04,5.1,3.55,7.56,8.05,4.92,8.82-5.16,17.63-10.65,25.41-17.21,11.3-9.53,21.36-20.5,32.56-30.16,8.67-7.48,18.85-12.56,30.76-12.38,5.15.08,9.63,1.89,12.29,6.95.57,1.08,2.52,1.8,3.93,2.02,6.24.95,8.65,5.13,5.57,10.7-2.16,3.91-5.44,7.24-7.35,11.24-2.33,4.85-4.4,10.02-5.36,15.28-.87,4.73,2.2,6.94,6.15,4.41,8.06-5.16,16.52-10.28,23.07-17.09,11.95-12.42,22.65-26.05,33.81-39.22,2.77-3.27,4.84-7.28,9.85-7.7,3.48-.29,6.01.81,6.56,4.48,1.01,6.64,3.87,12.24,8.58,17.03,2.85,2.91,2.67,6.34.54,9.59-4.74,7.21-9.81,14.2-14.3,21.56-1.95,3.19-2.81,7.05-4.33,11.05,6.51,1.36,10.69-1.19,14.7-3.66,15.92-9.8,28.66-23.08,40.78-37.13,7.65-8.88,16.71-16.13,28.19-19.78,16.15-5.13,27.65,3.69,26.7,21.14,11.8.07,22.92-2.58,33.63-7.26.76-.33,1.45-.81,2.2-1.17,2.96-1.41,6.23-2.85,8.31.88,1.91,3.44.38,7.12-2.74,8.58-8.64,4.04-17.49,7.72-26.5,10.84-4.31,1.49-9.17,1.93-13.77,1.87-4.16-.05-5.73,1.95-7.25,5.21-5.61,12.01-13.87,21.86-25.1,29.02-6.72,4.28-13.94,7.01-22.12,5.3-9.52-1.99-14.55-7.94-15.01-17.63-.09-1.94-.17-3.89-.26-5.9-7.29,5.53-13.98,11.56-21.57,16.08-5.83,3.47-12.61,5.98-19.29,7.26-10.5,2.02-17.23-4.78-15.69-15.34.65-4.46,2.59-8.9,4.72-12.95,2.62-4.98,6.04-9.54,9.13-14.27,3.86-5.9,3.78-6.86-1.35-12.7-5.3,6.38-10.11,13.18-15.94,18.96-10.96,10.87-22.16,21.56-33.97,31.48-5.72,4.81-12.8,8.51-21.06,7.08-8.23-1.42-11.27-4.51-12.95-12.86-.15-.76-.52-1.48-.59-1.68-7.38,5.48-14.5,11.2-22.09,16.2-3.19,2.1-7.31,3.34-11.14,3.81-9.85,1.2-14.85-2.75-17.03-12.5-.25-1.12-.68-2.19-1.21-3.87-4.15,3.23-7.83,6.51-11.92,9.16-5.26,3.42-10.62,6.89-16.35,9.36-12.8,5.52-23.19-.84-24.21-14.74-.37-5.02.54-10.13.86-15.12-6.18,5.36-12.4,11.28-19.19,16.46-6.44,4.91-13.12,9.78-20.35,13.33-13.52,6.65-24.75-.42-23.47-14.86.09-.97.01-1.95.01-2.67-3.67,3.4-7.34,6.86-11.07,10.25-6.16,5.58-12.24,11.39-21.03,12.47-10.77,1.33-17.13-4.88-16.27-15.74.08-.98.25-1.94.51-3.88-4.17,3.02-7.59,5.68-11.18,8.08-17.45,11.64-35.63,21.89-55.96,27.67-3.77,1.07-7.82,1.6-11.75,1.63-9.31.06-15.79-7.66-13.42-16.67,1.7-6.5,4.14-13.06,7.57-18.8,23.14-38.77,46.62-77.34,70.02-115.95,2.41-3.97,4.94-7.88,7.62-11.68,1.11-1.58,2.59-3.03,4.19-4.11,3.07-2.07,6.45-2.17,9.18.45,2.77,2.66,1.81,5.79.01,8.66-5.48,8.72-11.15,17.32-16.47,26.14-20.59,34.11-41.09,68.27-61.53,102.47-1.69,2.82-2.95,5.97-3.91,9.12-1.36,4.47.64,6.55,5.17,5.24,5.88-1.7,11.79-3.49,17.39-5.92,20.53-8.9,39.87-19.95,56.74-34.7,5.1-4.46,8.44-10.96,12.5-16.6,2.62-3.64,4.87-7.55,7.67-11.04,3.06-3.82,8.32-4.68,11.49-2.35,3.04,2.23,3.16,5.94.31,10.71-5.36,8.97-10.93,17.83-16.02,26.96-1.81,3.25-3.05,7.05-3.54,10.73-.55,4.13,2.06,5.88,5.47,3.57,5.87-3.97,11.98-8.04,16.65-13.26,8.85-9.88,16.75-20.61,25.04-30.98,2.07-2.59,3.91-5.42,6.25-7.73,2.91-2.87,6.41-2.64,9.52-.25,2.95,2.27,3.07,5.23,1.28,8.4-5.15,9.1-10.43,18.14-15.31,27.38-1.58,3-2.53,6.5-2.98,9.88-.6,4.52,2.13,6.53,6.5,5,2.79-.98,5.55-2.3,8.01-3.94,26.65-17.78,47.59-40.81,63-68.87.14-.25.05-.63.11-1.7ZM369.87,265.6c-.13-.6-.25-1.19-.38-1.79-3.01,0-6.15-.56-9.02.1-12.4,2.84-20.93,11.35-27.92,21.16-3.61,5.06-5.85,11.33-7.68,17.36-1.11,3.66,1.71,5.45,5.52,4.31,1.57-.47,3.14-1.12,4.55-1.96,15.71-9.48,26.13-23.61,34.94-39.17ZM526.56,258.49c-10.6,6.66-18.49,15.82-21.99,28.44-1.12,4.05-1.11,8.21,2.65,10.85,3.91,2.75,7.72.63,11-1.71,8.86-6.3,15.03-14.77,19.03-23.68-3.68-4.78-6.91-8.98-10.69-13.9Z"/>
      <path class="cls-1" d="M257.81,112.88c-12.33,3.67-23.11,6.78-33.79,10.21-1.05.34-1.89,2.49-2.17,3.92-3.75,19.03-13.9,33.48-30.65,43.29-7.42,4.34-15.44,6.47-23.9,4.81-11.34-2.22-18.89-14.38-15.93-26.61,6.08-25.13,22.23-41.93,45.85-51.31,11.7-4.65,20.01.25,24.64,13.44,8.44-3.14,16.9-6.25,25.32-9.44,5.41-2.05,10.71-4.46,16.21-6.21,3.89-1.24,8.08-1.19,11.16,2.15,3.22,3.5,2.87,7.77,1.12,11.72-2.95,6.66-6.29,13.14-9.46,19.7-.63,1.31-1.22,2.63-1.15,4.58,3.89-3.38,7.65-6.92,11.69-10.1,11.21-8.83,22.44-17.65,33.9-26.17,2.56-1.9,5.96-2.98,9.15-3.64,6.86-1.43,11.53,2.07,11.93,9.08.18,3.2-.56,6.61-1.59,9.68-2.43,7.22-5.39,14.27-7.94,21.45-.85,2.39-1.1,4.99-1.62,7.49l1.3,1.05c4.79-2.83,9.98-5.15,14.28-8.59,13.87-11.1,27.42-22.59,41.05-33.98,2.29-1.92,4.3-4.18,6.61-6.08,3.24-2.66,6.91-4.68,10.76-1.45,3.87,3.25,2.41,7.09.38,10.81-3.98,7.28-7.91,14.6-11.84,21.91-.53.98-.95,2.01-.83,3.5,7.16-6.43,13.96-13.35,21.59-19.17,8.13-6.2,16.93-11.58,25.71-16.86,2.37-1.42,5.76-1.7,8.65-1.6,7.26.25,11.29,5.98,8.6,12.71-2.95,7.37-6.93,14.31-10.11,21.59-1.94,4.43-3.22,9.15-4.8,13.74.5.48.99.97,1.49,1.45,2.97-1.07,6.17-1.72,8.86-3.27,14.39-8.31,26.63-19.27,37.76-31.51,4.92-5.42,9.57-11.1,14.74-16.27,1.98-1.98,4.99-3.77,7.67-3.99,2.33-.19,5.53,1.41,7.05,3.27.97,1.2.21,4.65-.83,6.51-5.17,9.26-10.84,18.24-15.96,27.53-1.37,2.49-1.84,5.69-1.97,8.6-.21,4.57,2.64,7.31,7.01,7.42,8.78.21,16.49-3.51,23.71-8.01,1.35-.84,1.51-3.77,1.99-5.8,4.72-20.18,15.83-35.61,34.22-45.42,3.29-1.76,7.11-3.01,10.8-3.42,11.04-1.23,18.1,7.17,14.19,17.65-2.25,6.05-6.23,11.69-10.39,16.73-8.04,9.74-18.53,16.56-29.6,22.48-1.17.62-2.34,1.25-3.47,1.93-.24.14-.31.54-.61,1.1,4.04,6.39,10.49,7.67,17.27,7.16,19.87-1.48,36.33-10.78,51.31-23.2,2.81-2.33,5.44-4.9,8.02-7.5,2.84-2.86,5.91-3.92,9.22-1.13,3.44,2.9,1.83,5.9-.36,8.73-7.42,9.62-16.67,17.16-26.97,23.42-14.89,9.06-30.71,14.91-48.55,13.54-10.68-.82-18.06-5.02-24.25-14.32-3.88,1.89-7.67,4.4-11.83,5.62-6.61,1.95-13.44,4.06-20.24,4.27-10.88.34-17.54-7.12-17.65-17.93-.02-2.45,0-4.89,0-6.77-8.17,6.29-16.52,13.01-25.21,19.25-3.73,2.68-8.05,4.62-12.29,6.47-5.31,2.32-10.91,2.6-15.58-1.26-4.69-3.87-4.7-9.77-3.28-14.83,2.37-8.41,5.9-16.49,8.97-24.7.5-1.34,1.13-2.64.9-4.84-3.52,2.2-7.45,3.94-10.49,6.68-13.73,12.32-27.2,24.92-40.76,37.42-.73.68-1.42,1.4-2.16,2.07-3.1,2.82-6.79,4.02-10.54,2.06-3.94-2.06-4.75-6.14-3.51-10,2.47-7.69,5.48-15.2,8.28-22.82-6.66,5.33-13.39,11.01-20.43,16.27-6.78,5.06-13.87,9.72-20.87,14.48-1.5,1.02-3.16,1.87-4.84,2.56-4.66,1.89-9.51,2.61-13.73-.7-4.25-3.32-5.05-8.23-3.69-13.14,2.07-7.49,4.63-14.85,7.04-22.24,1.11-3.4,2.38-6.75,3.58-10.12-.35-.36-.7-.73-1.05-1.09-5.12,3.43-10.66,6.38-15.27,10.39-13.91,12.13-27.45,24.67-41.13,37.06-2.22,2.01-4.29,4.19-6.63,6.04-3.34,2.65-7.05,2.87-10.63.52-3.49-2.29-3.1-5.85-1.82-8.97,3.56-8.74,7.43-17.35,11.27-25.97,2.08-4.66,4.36-9.22,7.16-15.11ZM194.28,114.8c-7.96,4.18-15,11.33-20.16,20.11-2.79,4.75-4.97,10.13-6.02,15.5-.59,3.03.74,8.42,2.87,9.53,2.91,1.51,8.08,1.16,11.12-.51,12.33-6.8,20.07-17.52,23.43-31.24.28-1.14-.23-2.94-1.04-3.78-3.04-3.15-6.36-6.04-10.19-9.6ZM571.14,89.89c-11.18-3.18-30.88,16.75-31.35,31.15,13.86-7.17,25.14-16.13,31.35-31.15Z"/>
      <path class="cls-1" d="M84.02,141.79c10.26,11.67,20.14,22.9,30.02,34.13,4.29,4.87,4.67,7.84,1.43,11.32-2.85,3.06-7.72,3.38-11.63-.42-6.18-6.01-11.82-12.59-17.51-19.08-6.77-7.73-13.36-15.63-20.5-24.02-1.25,1.74-2.41,3.05-3.22,4.54-10.58,19.36-21.08,38.76-31.69,58.11-1.09,2-2.41,4.83-4.15,5.29-2.72.72-6.46.62-8.69-.81-1.64-1.05-2.67-5.11-2.03-7.25,1.34-4.54,3.69-8.85,6.07-12.99,26.3-45.77,52.69-91.49,79.07-137.21.99-1.72,2.09-3.45,3.45-4.87,2.74-2.87,6.03-4.43,9.76-1.89,3.85,2.63,3.35,6.08,1.28,9.64-7.85,13.49-15.75,26.94-23.52,40.48-6.1,10.63-12.04,21.35-18.53,32.88,2.69-.64,4.71-.92,6.58-1.59,30.27-10.92,58.38-25.64,81.67-48.26,9.35-9.08,17.12-19.51,20.12-32.63,3.54-15.51-4.65-28.37-20.2-31.63-14.06-2.95-27.82-.63-41.24,3.5-36.04,11.09-67.02,30.33-92.07,58.66-4.36,4.94-7.89,10.68-11.37,16.31-2.76,4.47-3.83,9.34-2.42,14.82.48,1.87-.76,5.36-2.3,6.26-1.6.93-4.9.27-6.76-.85-4.85-2.92-6.7-9.86-4.98-16.52,3.4-13.21,11.86-23.28,20.89-32.85C45.9,39.04,74.76,19.85,108.23,7.96,124.59,2.14,141.44-1.17,159.07.38c19.58,1.73,34.25,12.71,38.21,30.2,2.67,11.81.15,23.2-5.57,33.7-11.73,21.5-29.76,36.84-50.07,49.7-16.58,10.5-34.24,18.9-52.68,25.65-1.55.57-3.03,1.32-4.92,2.16Z"/>
      <path class="cls-1" d="M521.75,57.47c-5.48-.27-8.1-3.69-6.93-9.02,1.37-6.23,7.98-12.19,14.32-12.9,6.16-.69,9.85,3.81,7.92,9.68-2.21,6.73-9.47,12.54-15.32,12.25Z"/>
    </g>
  </g>
</svg>